Patient4_TMGait_0pt7_02_right_38_EMG.mot
version=1
nRows=16
nColumns=33
inDegrees=no
endheader
time	1LAddLong	2LGlutMax	3LGlutMed	4LIliopsoas	5LSemiMemb	6LBicFemLong	7LRecFem	8LVastMed	9LVastLat	10LGasMed	11LTibAnt	12lTibPost	13LPeroneusLong	14LSol	15LExtDigLong	16LFlexDigLong	17RAddLong	18RGlutMax	19RGlutMed	20RIliopsoas	21RSemiMemb	22RBicFemLong	23RRecFem	24RVastMed	25RVastLat	26RGasMed	27RTibAnt	28RTibPost	29RPeroneusLong	30RSol	31RExtDigLong	32RFlexDigLong
43.735	-0.030823	-0.095062	-0.24857	0.007172	0.018158	-0.19318	-0.31265	0.032501	0.32135	0.12955	0.025482	0.018921	0.16007	0.080261	0.038147	0.014038	-0.014496	0.010223	-0.12421	0.037994	-0.075378	0.30167	0.066071	-0.16953	-0.00061	-0.001221	-1.1684	-0.16449	0.13611	-0.44769	-0.004578	0.006256
43.736	-0.001526	-0.080414	-0.2356	0.016937	-0.00885	-0.024719	-0.18478	0.01297	0.46555	0.28656	0.009308	0.041046	0.043335	0.21835	0.068512	-0.017242	-0.064087	0.10086	0.023346	-0.053253	-0.13382	0.33814	0.018005	-0.10757	0.032654	0.012665	0.65704	-0.16693	0.070953	-0.47974	-0.011902	-0.000763
43.737	-0.035553	-0.066071	-0.2153	0.005035	0.057831	-0.20493	-0.1886	-0.018311	0.40009	0.52567	-0.009003	0.048828	-0.20248	0.1532	0.06485	-0.095978	-0.093994	0.19669	0.23377	-0.037537	0.12482	0.32822	-0.009155	0.013428	0.066681	0.008087	0.044861	-0.17227	-0.05249	-0.35004	-0.02655	-0.001068
43.738	-0.009308	-0.071564	-0.18539	0.012512	0.090179	-0.37537	-0.1767	-0.026703	0.17288	0.20111	-0.006104	0.11673	-0.25894	-0.006409	0.019836	-0.098877	-0.073242	0.12268	0.26443	0.080719	0.020294	0.026398	0.088348	-0.015259	0.04837	-0.001831	-0.95184	-0.17349	-0.052338	0.067291	-0.021667	0.000916
43.739	-0.015869	-0.015106	-0.19073	0.011597	0.072327	-0.22766	-0.17593	0.005188	0.066376	0.13046	0.011902	0.13138	0.060272	-0.33859	-0.10147	0.033722	-0.00885	0.013885	0.21301	0.17166	0.038452	-0.16937	0.08316	-0.089417	0.021057	0.002441	-0.001984	-0.17471	0.068665	0.14435	-0.012817	-0.001068
43.74	-0.052185	-0.014343	-0.16068	-0.00824	-0.004578	0.022888	-0.13046	0.027924	0.11932	-0.19989	0.024414	0.22049	0.1413	-0.70877	-0.11185	0.10513	0.032043	0.018158	0.1831	0.22446	0.011902	-0.024261	0.089569	-0.13748	0.014038	-0.005951	1.0947	-0.17029	0.065613	-0.097961	-0.009613	-0.015411
43.741	-0.056458	0.011902	-0.14206	-0.026398	-0.009918	0.16251	-0.17654	0.022278	0.20111	-0.58334	0.020447	-0.041046	-0.027313	0.096283	-0.080719	0.11292	0.041809	0.1503	0.078278	0.16632	0.0737	0.088348	0.066528	-0.088654	0.022888	-0.009766	1.0158	-0.16312	-0.2385	-0.16342	-0.011902	-0.016174
43.742	-0.036774	0.13229	-0.07782	-0.007629	0.014343	0.19379	-0.2449	0.030212	0.10712	-0.4483	0.013733	-0.12863	-0.00824	0.45181	-0.047455	0.121	0.085907	0.062408	0.058136	0.23895	0.088959	-0.10269	-0.09613	-0.015869	0.065002	0.004578	1.5671	-0.16388	-0.39932	-0.037842	-0.018616	-0.012817
43.743	-0.007019	0.14526	0.017242	-0.001221	0.007477	0.094604	-0.31982	0.011139	0.00412	-0.31036	0.01709	0.06012	-0.043488	0.6282	-0.019836	0.046387	0.076904	-0.071259	0.094147	0.22797	0.2005	-0.093231	-0.17364	0.002136	0.078583	0.026093	1.2306	-0.13443	-0.18616	-0.061493	-0.008698	-0.016785
43.744	0.012512	0.048676	0.015106	0.003052	0.011597	0.034637	-0.18219	-0.004272	-0.05127	-0.19211	0.02533	0.078125	0.15869	0.36835	-0.032196	0.052185	0.11658	-0.14862	0.16144	0.11246	-0.039215	-0.16129	-0.14816	-0.093689	0.035248	0.039063	-0.2507	-0.12512	0.34988	-0.16693	-0.011444	-0.014191
43.745	0.021057	0.057678	0.019836	0.00946	0.007782	0.12283	-0.044708	-0.067596	-0.065002	-0.050049	0.033722	0.038605	0.21896	-0.10666	0.00412	-0.024567	0.061646	-0.12085	0.24918	-0.00061	-0.40192	-0.23651	-0.095367	-0.10925	-0.001984	0.017395	-0.72067	-0.11368	0.42725	0.080261	-0.011139	-0.02533
43.746	0.029449	0.11459	0.26108	0.02655	0.007019	0.089874	0.011444	-0.085144	0.053253	-0.036774	0.022888	-0.00412	-0.25436	-0.33508	0.038452	-0.026245	0.026245	-0.11383	0.2803	-0.056763	-0.15823	-0.23789	-0.18768	-0.10239	0.034332	-0.019226	-0.30304	-0.1062	-0.11536	0.30075	-0.001678	-0.03891
43.747	0.062103	0.003815	0.34149	0.032043	-0.021667	-0.13001	-0.027008	-0.081787	0.12268	-0.11963	-0.009613	0.005798	-0.2388	-0.2478	-0.001831	0.00824	0.08606	-0.17303	-0.036774	-0.10803	-0.063782	-0.18234	-0.1828	-0.12146	0.016937	-0.028687	-0.32883	-0.099792	-0.085602	0.41321	-0.002747	-0.034943
43.748	0.079041	-0.084839	0.22736	0.023956	0.039368	-0.31616	-0.18005	-0.025482	0.020447	-0.1329	-0.003204	0	-0.12299	-0.044861	-0.059814	0.000458	0.080872	-0.20477	-0.044708	-0.20874	-0.15427	-0.085144	-0.1442	-0.05188	0.030365	-0.020752	-0.3949	-0.089569	0.050354	0.41306	-0.00946	-0.027618
43.749	0.062256	0.041504	0.18601	0.022583	0.084229	-0.36346	-0.2684	0.019073	0.038452	-0.095673	0.045166	-0.010223	-0.13001	0.009003	-0.1152	0.016937	-0.001068	-0.1619	0.48737	-0.34363	-0.12833	0.099335	-0.20676	0.015717	0.048218	-0.010834	-0.37399	-0.089417	0.17578	0.30548	-0.005646	-0.035553
43.75	0.035095	0.15747	0.27039	0.015259	0.064697	-0.224	-0.32593	0.034943	0.20035	-0.041656	0.050507	-0.00412	-0.1944	0.12466	-0.094757	0.025787	-0.11017	-0.15472	0.5336	-0.25986	-0.13245	-0.045776	-0.25238	0.11154	0.065918	-0.012512	0.084839	-0.085297	-0.001831	0.39932	-0.003357	-0.035706
